<svg width="260" height="40" viewBox="0 0 260 40" fill="none" xmlns="http://www.w3.org/2000/svg">
<path d="M54.1847 19.8098C54.1847 12.455 59.8325 7.19141 67.4289 7.19141C71.6469 7.19141 75.1678 8.72415 77.465 11.5124L73.841 14.8591C72.2014 12.9778 70.1458 11.9995 67.7061 11.9995C63.1396 11.9995 59.8998 15.2076 59.8998 19.8058C59.8998 24.4041 63.1396 27.6121 67.7061 27.6121C70.1458 27.6121 72.2014 26.6378 73.841 24.7209L77.465 28.0676C75.1639 30.8915 71.6429 32.4242 67.3932 32.4242C59.8285 32.4242 54.1847 27.1606 54.1847 19.8098Z" fill="#0051D6"/>
<path d="M87.711 12.2136H79.9047V7.61145H101.165V12.2136H93.3587V32.0086H87.711V12.2136Z" fill="#0051D6"/>
<path d="M102.282 29.6043L104.199 25.3507C106.254 26.8478 109.324 27.8933 112.251 27.8933C115.597 27.8933 116.956 26.7765 116.956 25.2794C116.956 20.7128 102.773 23.8496 102.773 14.7878C102.773 10.6411 106.12 7.19141 113.055 7.19141C116.12 7.19141 119.257 7.92411 121.522 9.35388L119.78 13.6392C117.514 12.3481 115.178 11.7223 113.019 11.7223C109.672 11.7223 108.385 12.9778 108.385 14.5106C108.385 19.0058 122.572 15.9047 122.572 24.8595C122.572 28.9389 119.19 32.4242 112.219 32.4242C108.35 32.4242 104.448 31.2757 102.286 29.6004L102.282 29.6043Z" fill="#0051D6"/>
<path d="M153.314 8.51843V31.4937H148.949L137.495 17.5446V31.4937H132.244V8.51843H136.64L148.062 22.4676V8.51843H153.314Z" fill="#0051D6"/>
<path d="M157.088 22.6654C157.088 17.3503 161.192 13.5719 166.804 13.5719C172.416 13.5719 176.487 17.3463 176.487 22.6654C176.487 27.9844 172.416 31.7589 166.804 31.7589C161.192 31.7589 157.088 27.9844 157.088 22.6654ZM171.299 22.6654C171.299 19.6118 169.362 17.7741 166.804 17.7741C164.245 17.7741 162.273 19.6118 162.273 22.6654C162.273 25.719 164.241 27.5567 166.804 27.5567C169.366 27.5567 171.299 25.719 171.299 22.6654Z" fill="#0051D6"/>
<path d="M190.86 13.5721V18.297C190.432 18.2654 190.104 18.2297 189.712 18.2297C186.888 18.2297 185.018 19.7704 185.018 23.1527V31.4897H179.897V13.8335H184.789V16.1623C186.036 14.4553 188.135 13.5681 190.86 13.5681V13.5721Z" fill="#0051D6"/>
<path d="M211.733 7.13995V31.4935H206.841V29.4578C205.562 30.9985 203.689 31.7549 201.328 31.7549C196.338 31.7549 192.5 28.2102 192.5 22.6615C192.5 17.1127 196.342 13.568 201.328 13.568C203.495 13.568 205.332 14.2571 206.612 15.7027V7.13599H211.733V7.13995ZM206.711 22.6654C206.711 19.6118 204.742 17.7741 202.215 17.7741C199.688 17.7741 197.684 19.6118 197.684 22.6654C197.684 25.719 199.653 27.5567 202.215 27.5567C204.778 27.5567 206.711 25.719 206.711 22.6654Z" fill="#0051D6"/>
<path d="M215.832 8.51842C215.832 6.91042 217.111 5.66284 219.016 5.66284C220.921 5.66284 222.2 6.84309 222.2 8.4194C222.2 10.1264 220.921 11.374 219.016 11.374C217.111 11.374 215.832 10.1264 215.832 8.51842ZM216.454 13.8335H221.575V31.4898H216.454V13.8335Z" fill="#0051D6"/>
<path d="M225.024 22.6654C225.024 17.3503 229.127 13.5719 234.87 13.5719C238.577 13.5719 241.5 15.1799 242.78 18.0672L238.807 20.2019C237.857 18.5266 236.443 17.7741 234.835 17.7741C232.24 17.7741 230.209 19.5801 230.209 22.6654C230.209 25.7507 232.244 27.5567 234.835 27.5567C236.443 27.5567 237.853 26.8359 238.807 25.1289L242.78 27.2953C241.5 30.1192 238.577 31.7589 234.87 31.7589C229.127 31.7589 225.024 27.9844 225.024 22.6654Z" fill="#0051D6"/>
<path d="M244.023 29.8539L245.73 26.1785C247.306 27.1964 249.703 27.8855 251.869 27.8855C254.233 27.8855 255.117 27.2637 255.117 26.2775C255.117 23.3902 244.451 26.3448 244.451 19.2871C244.451 15.9404 247.469 13.5759 252.621 13.5759C255.049 13.5759 257.743 14.1344 259.414 15.1166L257.707 18.7603C255.968 17.7741 254.226 17.4454 252.618 17.4454C250.32 17.4454 249.334 18.1662 249.334 19.0851C249.334 22.1031 260 19.1841 260 26.1428C260 29.4262 256.946 31.755 251.663 31.755C248.677 31.755 245.655 30.9351 244.015 29.8499L244.023 29.8539Z" fill="#0051D6"/>
<g clip-path="url(#clip0_778_670)">
<path d="M28.4488 0.141602L24.9516 3.63879L21.4544 0.141602L17.9573 3.63879L14.464 0.141602L0 14.6056V25.113L7.75085 32.8639L11.248 29.3667L14.7452 32.8639L19.5019 28.1072L11.8659 20.4712V19.2355L28.4488 2.65657L32.7857 6.9934L34.0451 5.73394L28.4488 0.141602ZM7.75085 30.3489L1.79414 24.3922V15.3225L14.464 2.65657L16.7018 4.8943L5.03786 16.5582V23.1526L9.98858 28.1033L7.75085 30.341V30.3489ZM10.0678 18.5226V21.204L16.979 28.1152L14.7413 30.3529L6.82804 22.4397V17.279L21.4544 2.65657L23.6922 4.8943L10.0678 18.5226Z" fill="#0051D6"/>
<path d="M43.1901 24.5586V14.8868L35.4393 7.13599L31.9421 10.6332L28.4449 7.13599L23.6883 11.8926L31.3243 19.5286V20.7643L14.7413 37.3473L10.4045 33.0104L9.14502 34.2699L14.7413 39.8662L18.2385 36.369L21.7357 39.8662L25.2329 36.369L28.7301 39.8662L43.1941 25.4022V24.5625L43.1901 24.5586ZM33.2016 11.8966L35.4393 9.65887L41.396 15.6156V24.6813L28.7261 37.3512L26.4884 35.1135L38.1523 23.4496V16.8552L33.2016 11.9045V11.8966ZM33.1224 21.4812V18.7999L26.2111 11.8887L28.4489 9.65095L36.3621 17.5642V22.7248L21.7357 37.3512L19.498 35.1135L33.1224 21.4891V21.4812Z" fill="#1FA95E"/>
</g>
<defs>
<clipPath id="clip0_778_670">
<rect width="43.1941" height="39.7167" fill="white" transform="translate(0 0.141602)"/>
</clipPath>
</defs>
</svg>
